<mxfile host="app.diagrams.net" agent="Mozilla/5.0 (Windows NT 10.0; Win64; x64) AppleWebKit/537.36 (KHTML, like Gecko) Chrome/140.0.0.0 Safari/537.36" version="28.2.1">
  <diagram name="Página-1" id="UTK1fdrzAm0RXRqBBXu5">
    <mxGraphModel dx="1426" dy="777" grid="1" gridSize="10" guides="1" tooltips="1" connect="1" arrows="1" fold="1" page="1" pageScale="1" pageWidth="827" pageHeight="1169" math="0" shadow="0">
      <root>
        <mxCell id="0" />
        <mxCell id="1" parent="0" />
        <mxCell id="wwFPxOzxuznYZlnrogm7-5" value="" style="edgeStyle=orthogonalEdgeStyle;rounded=0;orthogonalLoop=1;jettySize=auto;html=1;" edge="1" parent="1" source="wwFPxOzxuznYZlnrogm7-1" target="wwFPxOzxuznYZlnrogm7-4">
          <mxGeometry relative="1" as="geometry" />
        </mxCell>
        <mxCell id="wwFPxOzxuznYZlnrogm7-21" value="Porque?" style="edgeLabel;html=1;align=center;verticalAlign=middle;resizable=0;points=[];" vertex="1" connectable="0" parent="wwFPxOzxuznYZlnrogm7-5">
          <mxGeometry x="-0.1" y="2" relative="1" as="geometry">
            <mxPoint as="offset" />
          </mxGeometry>
        </mxCell>
        <mxCell id="wwFPxOzxuznYZlnrogm7-1" value="Aluno não consegue as quantidade de horas obrigatórias" style="rounded=0;whiteSpace=wrap;html=1;" vertex="1" parent="1">
          <mxGeometry x="80" y="450" width="120" height="60" as="geometry" />
        </mxCell>
        <mxCell id="wwFPxOzxuznYZlnrogm7-9" value="" style="edgeStyle=orthogonalEdgeStyle;rounded=0;orthogonalLoop=1;jettySize=auto;html=1;" edge="1" parent="1" source="wwFPxOzxuznYZlnrogm7-4" target="wwFPxOzxuznYZlnrogm7-8">
          <mxGeometry relative="1" as="geometry" />
        </mxCell>
        <mxCell id="wwFPxOzxuznYZlnrogm7-23" value="Porque?" style="edgeLabel;html=1;align=center;verticalAlign=middle;resizable=0;points=[];" vertex="1" connectable="0" parent="wwFPxOzxuznYZlnrogm7-9">
          <mxGeometry x="-0.025" y="-3" relative="1" as="geometry">
            <mxPoint as="offset" />
          </mxGeometry>
        </mxCell>
        <mxCell id="wwFPxOzxuznYZlnrogm7-11" value="" style="edgeStyle=orthogonalEdgeStyle;rounded=0;orthogonalLoop=1;jettySize=auto;html=1;" edge="1" parent="1" source="wwFPxOzxuznYZlnrogm7-4" target="wwFPxOzxuznYZlnrogm7-10">
          <mxGeometry relative="1" as="geometry">
            <Array as="points">
              <mxPoint x="340" y="630" />
            </Array>
          </mxGeometry>
        </mxCell>
        <mxCell id="wwFPxOzxuznYZlnrogm7-24" value="Porque?" style="edgeLabel;html=1;align=center;verticalAlign=middle;resizable=0;points=[];" vertex="1" connectable="0" parent="wwFPxOzxuznYZlnrogm7-11">
          <mxGeometry x="0.3231" y="-2" relative="1" as="geometry">
            <mxPoint as="offset" />
          </mxGeometry>
        </mxCell>
        <mxCell id="wwFPxOzxuznYZlnrogm7-19" style="edgeStyle=orthogonalEdgeStyle;rounded=0;orthogonalLoop=1;jettySize=auto;html=1;" edge="1" parent="1" source="wwFPxOzxuznYZlnrogm7-4" target="wwFPxOzxuznYZlnrogm7-20">
          <mxGeometry relative="1" as="geometry">
            <mxPoint x="340" y="370" as="targetPoint" />
          </mxGeometry>
        </mxCell>
        <mxCell id="wwFPxOzxuznYZlnrogm7-22" value="Porque?" style="edgeLabel;html=1;align=center;verticalAlign=middle;resizable=0;points=[];" vertex="1" connectable="0" parent="wwFPxOzxuznYZlnrogm7-19">
          <mxGeometry x="-0.2" y="2" relative="1" as="geometry">
            <mxPoint as="offset" />
          </mxGeometry>
        </mxCell>
        <mxCell id="wwFPxOzxuznYZlnrogm7-4" value="Vária fichas indeferidas" style="whiteSpace=wrap;html=1;rounded=0;" vertex="1" parent="1">
          <mxGeometry x="280" y="450" width="120" height="60" as="geometry" />
        </mxCell>
        <mxCell id="wwFPxOzxuznYZlnrogm7-13" value="" style="edgeStyle=orthogonalEdgeStyle;rounded=0;orthogonalLoop=1;jettySize=auto;html=1;" edge="1" parent="1" source="wwFPxOzxuznYZlnrogm7-8" target="wwFPxOzxuznYZlnrogm7-12">
          <mxGeometry relative="1" as="geometry" />
        </mxCell>
        <mxCell id="wwFPxOzxuznYZlnrogm7-28" value="Porque?" style="edgeLabel;html=1;align=center;verticalAlign=middle;resizable=0;points=[];" vertex="1" connectable="0" parent="wwFPxOzxuznYZlnrogm7-13">
          <mxGeometry x="-0.35" y="4" relative="1" as="geometry">
            <mxPoint as="offset" />
          </mxGeometry>
        </mxCell>
        <mxCell id="wwFPxOzxuznYZlnrogm7-8" value="Aluno envia documentos em formatação incorreta" style="whiteSpace=wrap;html=1;rounded=0;" vertex="1" parent="1">
          <mxGeometry x="480" y="450" width="120" height="60" as="geometry" />
        </mxCell>
        <mxCell id="wwFPxOzxuznYZlnrogm7-16" style="edgeStyle=orthogonalEdgeStyle;rounded=0;orthogonalLoop=1;jettySize=auto;html=1;" edge="1" parent="1" source="wwFPxOzxuznYZlnrogm7-10" target="wwFPxOzxuznYZlnrogm7-17">
          <mxGeometry relative="1" as="geometry">
            <mxPoint x="680" y="630" as="targetPoint" />
          </mxGeometry>
        </mxCell>
        <mxCell id="wwFPxOzxuznYZlnrogm7-25" value="Porque?" style="edgeLabel;html=1;align=center;verticalAlign=middle;resizable=0;points=[];" vertex="1" connectable="0" parent="wwFPxOzxuznYZlnrogm7-16">
          <mxGeometry x="-0.125" y="-1" relative="1" as="geometry">
            <mxPoint as="offset" />
          </mxGeometry>
        </mxCell>
        <mxCell id="wwFPxOzxuznYZlnrogm7-10" value="Aluno faz cursos extracurriculares no período da aula" style="whiteSpace=wrap;html=1;rounded=0;" vertex="1" parent="1">
          <mxGeometry x="480" y="600" width="120" height="60" as="geometry" />
        </mxCell>
        <mxCell id="wwFPxOzxuznYZlnrogm7-15" value="" style="edgeStyle=orthogonalEdgeStyle;rounded=0;orthogonalLoop=1;jettySize=auto;html=1;" edge="1" parent="1" source="wwFPxOzxuznYZlnrogm7-12" target="wwFPxOzxuznYZlnrogm7-14">
          <mxGeometry relative="1" as="geometry" />
        </mxCell>
        <mxCell id="wwFPxOzxuznYZlnrogm7-27" value="Porque?" style="edgeLabel;html=1;align=center;verticalAlign=middle;resizable=0;points=[];" vertex="1" connectable="0" parent="wwFPxOzxuznYZlnrogm7-15">
          <mxGeometry x="-0.325" y="1" relative="1" as="geometry">
            <mxPoint as="offset" />
          </mxGeometry>
        </mxCell>
        <mxCell id="wwFPxOzxuznYZlnrogm7-12" value="Aluno não conhece as regras específicas de documentação" style="whiteSpace=wrap;html=1;rounded=0;" vertex="1" parent="1">
          <mxGeometry x="680" y="450" width="120" height="60" as="geometry" />
        </mxCell>
        <mxCell id="wwFPxOzxuznYZlnrogm7-14" value="Falta um processo de divulgação do Guia de Solicitação" style="whiteSpace=wrap;html=1;rounded=0;" vertex="1" parent="1">
          <mxGeometry x="880" y="450" width="120" height="60" as="geometry" />
        </mxCell>
        <mxCell id="wwFPxOzxuznYZlnrogm7-18" style="edgeStyle=orthogonalEdgeStyle;rounded=0;orthogonalLoop=1;jettySize=auto;html=1;" edge="1" parent="1" source="wwFPxOzxuznYZlnrogm7-17" target="wwFPxOzxuznYZlnrogm7-14">
          <mxGeometry relative="1" as="geometry" />
        </mxCell>
        <mxCell id="wwFPxOzxuznYZlnrogm7-26" value="Porque?" style="edgeLabel;html=1;align=center;verticalAlign=middle;resizable=0;points=[];" vertex="1" connectable="0" parent="wwFPxOzxuznYZlnrogm7-18">
          <mxGeometry x="-0.3923" y="-3" relative="1" as="geometry">
            <mxPoint as="offset" />
          </mxGeometry>
        </mxCell>
        <mxCell id="wwFPxOzxuznYZlnrogm7-17" value="Aluno não conhece as observações feitas pelo Colegiado" style="rounded=0;whiteSpace=wrap;html=1;" vertex="1" parent="1">
          <mxGeometry x="680" y="600" width="120" height="60" as="geometry" />
        </mxCell>
        <mxCell id="wwFPxOzxuznYZlnrogm7-29" style="edgeStyle=orthogonalEdgeStyle;rounded=0;orthogonalLoop=1;jettySize=auto;html=1;" edge="1" parent="1" source="wwFPxOzxuznYZlnrogm7-20" target="wwFPxOzxuznYZlnrogm7-30">
          <mxGeometry relative="1" as="geometry">
            <mxPoint x="520" y="320" as="targetPoint" />
          </mxGeometry>
        </mxCell>
        <mxCell id="wwFPxOzxuznYZlnrogm7-35" value="Porque?" style="edgeLabel;html=1;align=center;verticalAlign=middle;resizable=0;points=[];" vertex="1" connectable="0" parent="wwFPxOzxuznYZlnrogm7-29">
          <mxGeometry x="-0.2232" y="-2" relative="1" as="geometry">
            <mxPoint as="offset" />
          </mxGeometry>
        </mxCell>
        <mxCell id="wwFPxOzxuznYZlnrogm7-20" value="Atividade que ele envia não é elegível como Atividade Complementar" style="rounded=0;whiteSpace=wrap;html=1;" vertex="1" parent="1">
          <mxGeometry x="280" y="290" width="120" height="60" as="geometry" />
        </mxCell>
        <mxCell id="wwFPxOzxuznYZlnrogm7-32" style="edgeStyle=orthogonalEdgeStyle;rounded=0;orthogonalLoop=1;jettySize=auto;html=1;" edge="1" parent="1" source="wwFPxOzxuznYZlnrogm7-30" target="wwFPxOzxuznYZlnrogm7-31">
          <mxGeometry relative="1" as="geometry" />
        </mxCell>
        <mxCell id="wwFPxOzxuznYZlnrogm7-34" value="Porque?" style="edgeLabel;html=1;align=center;verticalAlign=middle;resizable=0;points=[];" vertex="1" connectable="0" parent="wwFPxOzxuznYZlnrogm7-32">
          <mxGeometry x="-0.1071" relative="1" as="geometry">
            <mxPoint as="offset" />
          </mxGeometry>
        </mxCell>
        <mxCell id="wwFPxOzxuznYZlnrogm7-30" value="Atividade realizada faz parte de uma Disciplina Obrigatória" style="rounded=0;whiteSpace=wrap;html=1;" vertex="1" parent="1">
          <mxGeometry x="560" y="290" width="120" height="60" as="geometry" />
        </mxCell>
        <mxCell id="wwFPxOzxuznYZlnrogm7-37" value="" style="edgeStyle=orthogonalEdgeStyle;rounded=0;orthogonalLoop=1;jettySize=auto;html=1;" edge="1" parent="1" source="wwFPxOzxuznYZlnrogm7-31" target="wwFPxOzxuznYZlnrogm7-36">
          <mxGeometry relative="1" as="geometry" />
        </mxCell>
        <mxCell id="wwFPxOzxuznYZlnrogm7-38" value="Porque?" style="edgeLabel;html=1;align=center;verticalAlign=middle;resizable=0;points=[];" vertex="1" connectable="0" parent="wwFPxOzxuznYZlnrogm7-37">
          <mxGeometry x="-0.1036" y="2" relative="1" as="geometry">
            <mxPoint as="offset" />
          </mxGeometry>
        </mxCell>
        <mxCell id="wwFPxOzxuznYZlnrogm7-31" value="&lt;font style=&quot;font-size: 11px;&quot;&gt;Aluno não entende a diferença entre atividades de extensão e complementares&lt;/font&gt;" style="rounded=0;whiteSpace=wrap;html=1;" vertex="1" parent="1">
          <mxGeometry x="800" y="290" width="120" height="60" as="geometry" />
        </mxCell>
        <mxCell id="wwFPxOzxuznYZlnrogm7-36" value="Falta uma orientação que exemplifique a diferença entre as atividades" style="whiteSpace=wrap;html=1;rounded=0;" vertex="1" parent="1">
          <mxGeometry x="1000" y="290" width="120" height="60" as="geometry" />
        </mxCell>
      </root>
    </mxGraphModel>
  </diagram>
</mxfile>
